<?xml version="1.0" encoding="utf-8"?>
<!-- 米屋的 LOGO 使用规则详见 `README.md` -->
<svg width="600" height="600" viewBox="0 0 600 600" fill="none" xmlns="http://www.w3.org/2000/svg">
  <g>
    <path d="M0 300C0 134.315 134.315 0 300 0C465.685 0 600 134.315 600 300C600 465.685 465.685 600 300 600C134.315 600 0 465.685 0 300Z" fill="#00BD9D" fill-rule="evenodd" />
    <g transform="translate(163.885 150.919)">
      <path d="M103.793 10.6725C135.958 -3.79339 135.026 -3.31963 166.911 10.6725C167.106 10.9706 214.102 32.98 244.969 47.4129C244.969 47.4129 271.32 60.6351 271.32 85.5754C271.32 104.509 271.32 197.212 271.32 217.102C271.32 236.993 250.652 247.791 248.352 248.893C224.121 260.5 186.757 278.349 166.911 287.585C135.981 301.978 135.003 303.023 104.504 288.168C104.504 288.296 61.1733 267.406 30.3147 252.514C30.3147 252.514 0 239.847 0 217.102C0 194.358 0 111.029 0 85.5754C0 66.1251 8.53943 56.9507 25.4927 48.2383C42.446 39.526 103.701 10.8482 103.793 10.6725Z" fill="#FFFFFF" fill-rule="evenodd" fill-opacity="0.498" />
      <path d="M100.387 6.04274C81.795 -2.13202 81.7581 -2.14823 61.8093 6.82359C61.7502 6.93595 27.1384 25.2714 16.2991 30.8418C5.45979 36.4121 0 42.2779 0 54.7137L0 138.807C0 153.349 19.3821 161.448 19.3821 161.448C39.0968 170.962 62.2283 184.305 62.2638 184.244C62.7883 184.499 63.2992 184.747 63.7972 184.988L67.6797 186.804C67.6797 186.804 67.9084 186.928 68.3083 187.123C68.9891 187.435 69.6425 187.729 70.2716 188.003C74.4431 189.712 82.1833 191.871 82.1833 184.369L82.1833 88.9629C82.1833 71.7264 84.4444 73.263 93.746 67.2297C97.8893 64.5421 113.257 56.2572 129.027 47.8946C129.027 47.8946 128.963 47.9314 128.966 47.9383C128.979 47.9677 130.208 47.4559 142.763 41.2629C156.351 34.5608 145.541 27.5444 142.66 25.9115C124.019 17.1877 102.27 6.9857 102.164 6.82357C101.553 6.55553 100.961 6.29524 100.387 6.04274ZM82.5596 191.052L82.1833 191.052C82.1833 191.052 82.1799 191.058 82.1732 191.068C82.3019 191.064 82.4307 191.059 82.5596 191.052Z" fill="#FFFFFF" fill-rule="evenodd" transform="translate(53.718 52.116)" />
    </g>
  </g>
</svg>